<svg xmlns="http://www.w3.org/2000/svg" viewBox="0 0 100 100" width="100" height="100">
  <rect width="100" height="100" rx="22" fill="#080A12" />
  <g transform="translate(50, 50)">
    <g transform="rotate(0) translate(0, -31) skewX(-24)">
      <rect x="-7" y="-12" width="14" height="24" rx="4" fill="#F5EFE4" />
    </g>
    <g transform="rotate(60) translate(0, -31) skewX(-24)">
      <rect x="-7" y="-12" width="14" height="24" rx="4" fill="#10C7D4" />
    </g>
    <g transform="rotate(120) translate(0, -31) skewX(-24)">
      <rect x="-7" y="-12" width="14" height="24" rx="4" fill="#F5EFE4" />
    </g>
    <g transform="rotate(180) translate(0, -31) skewX(-24)">
      <rect x="-7" y="-12" width="14" height="24" rx="4" fill="#F5EFE4" />
    </g>
    <g transform="rotate(240) translate(0, -31) skewX(-24)">
      <rect x="-7" y="-12" width="14" height="24" rx="4" fill="#F5EFE4" />
    </g>
    <g transform="rotate(300) translate(0, -31) skewX(-24)">
      <rect x="-7" y="-12" width="14" height="24" rx="4" fill="#F5EFE4" />
    </g>
  </g>
</svg>
